<?xml version="1.0" encoding="utf-8"?>
<!-- Generator: Adobe Illustrator 22.0.0, SVG Export Plug-In . SVG Version: 6.00 Build 0)  -->
<svg version="1.1" id="rulessvg" xmlns="http://www.w3.org/2000/svg" xmlns:xlink="http://www.w3.org/1999/xlink" x="0px" y="0px"
	 viewBox="0 0 250 225" style="enable-background:new 0 0 250 225;" xml:space="preserve">
<style type="text/css">
	.st0{fill:#FF8000;stroke:#FF8000;stroke-miterlimit:10;}
	.st1{fill:none;stroke:#FF8000;stroke-miterlimit:10;}
	.st2{fill:#FFFFFF;}
</style>
<path class="st0" d="M173.2,54.8l-22.6-21.9c-2.4-2.3-5.7-3.7-9.1-3.7H86.6c-7.1,0-12.9,5.6-12.9,12.5v108.4
	c0,6.9,5.8,12.5,12.9,12.5h77.5c7.1,0,12.9-5.6,12.9-12.5V63.7C177,60.4,175.6,57.2,173.2,54.8z M142.6,42.8l20.5,19.8h-20.5V42.8z
	 M164.1,150.2H86.6V41.8h43v27.1c0,3.5,2.9,6.3,6.5,6.3h28V150.2z"/>
<ellipse class="st1" cx="125.3" cy="96" rx="96.3" ry="93.2"/>
<g class="">
	<path class="st2" d="M18.8,196.9v22.5h-2.9v-20.1H5.4v20.1H2.5v-22.5H18.8z"/>
	<path class="st2" d="M23.8,208.5c0-2.1-0.1-3.7-0.1-5.3h2.6l0.1,2.8h0.1c1.2-2,3.1-3.1,5.7-3.1c3.9,0,6.8,3.3,6.8,8.2
		c0,5.8-3.5,8.7-7.3,8.7c-2.1,0-4-0.9-5-2.5h-0.1v8.8h-2.9V208.5z M26.7,212.8c0,0.4,0.1,0.8,0.1,1.2c0.5,2,2.3,3.4,4.4,3.4
		c3.1,0,4.9-2.5,4.9-6.3c0-3.2-1.7-6-4.8-6c-2,0-3.9,1.4-4.4,3.6c-0.1,0.4-0.2,0.8-0.2,1.2V212.8z"/>
	<path class="st2" d="M51.7,219.4l-0.2-2h-0.1c-0.9,1.3-2.6,2.4-4.9,2.4c-3.3,0-4.9-2.3-4.9-4.6c0-3.9,3.5-6.1,9.7-6v-0.3
		c0-1.3-0.4-3.7-3.7-3.7c-1.5,0-3.1,0.5-4.2,1.2l-0.7-1.9c1.3-0.9,3.3-1.4,5.3-1.4c4.9,0,6.1,3.4,6.1,6.6v6.1c0,1.4,0.1,2.8,0.3,3.9
		H51.7z M51.3,211.1c-3.2-0.1-6.8,0.5-6.8,3.6c0,1.9,1.3,2.8,2.8,2.8c2.1,0,3.4-1.3,3.9-2.7c0.1-0.3,0.2-0.6,0.2-0.9V211.1z"/>
	<path class="st2" d="M58.8,203.4c1.1-0.2,3.2-0.4,5.1-0.4c2.7,0,7.2,0.4,7.2,4c0,2-1.5,3.2-3.4,3.6v0.1c2.4,0.3,4.1,1.7,4.1,4
		c0,4.2-5.3,4.8-8.5,4.8c-1.8,0-3.7-0.1-4.5-0.2V203.4z M61.6,217.5c0.8,0.1,1.4,0.1,2.4,0.1c2,0,4.9-0.5,4.9-2.8
		c0-2.3-2.3-2.8-5.1-2.8h-2.1V217.5z M61.6,210h2.2c2.2,0,4.4-0.6,4.4-2.5c0-1.6-1.4-2.4-4.3-2.4c-1,0-1.6,0.1-2.3,0.1V210z"/>
	<path class="st2" d="M78.3,203.2v6.8c0,2.6,0,4.2-0.2,6.5l0.1,0c1-2,1.5-3.1,2.6-5l5-8.4h3.4v16.2h-2.8v-6.9c0-2.6,0.1-4,0.2-6.6
		h-0.1c-1,2.1-1.7,3.4-2.7,5c-1.5,2.5-3.3,5.6-5,8.5h-3.4v-16.2H78.3z"/>
	<path class="st2" d="M106.4,203.2v16.2h-2.9v-13.9h-5.5v4.2c0,4.5-0.4,7.6-2.5,9c-0.8,0.6-1.7,1-3.2,1l-0.3-2.3
		c0.6-0.1,1.2-0.3,1.6-0.7c1.5-1.1,1.7-3.4,1.7-7v-6.5H106.4z"/>
	<path class="st2" d="M120.1,219.4l-0.2-2h-0.1c-0.9,1.3-2.6,2.4-4.9,2.4c-3.3,0-4.9-2.3-4.9-4.6c0-3.9,3.5-6.1,9.7-6v-0.3
		c0-1.3-0.4-3.7-3.7-3.7c-1.5,0-3.1,0.5-4.2,1.2l-0.7-1.9c1.3-0.9,3.3-1.4,5.3-1.4c4.9,0,6.1,3.4,6.1,6.6v6.1c0,1.4,0.1,2.8,0.3,3.9
		H120.1z M119.7,211.1c-3.2-0.1-6.8,0.5-6.8,3.6c0,1.9,1.3,2.8,2.8,2.8c2.1,0,3.4-1.3,3.9-2.7c0.1-0.3,0.2-0.6,0.2-0.9V211.1z"/>
	<path class="st2" d="M147.6,203.2v16.2h-2.9v-13.8h-7.5v13.8h-2.9v-16.2H147.6z"/>
	<path class="st2" d="M152.4,208.5c0-2.1-0.1-3.7-0.1-5.3h2.6l0.1,2.8h0.1c1.2-2,3.1-3.1,5.7-3.1c3.9,0,6.8,3.3,6.8,8.2
		c0,5.8-3.5,8.7-7.3,8.7c-2.1,0-4-0.9-5-2.5h-0.1v8.8h-2.9V208.5z M155.3,212.8c0,0.4,0.1,0.8,0.1,1.2c0.5,2,2.3,3.4,4.4,3.4
		c3.1,0,4.9-2.5,4.9-6.3c0-3.2-1.7-6-4.8-6c-2,0-3.9,1.4-4.4,3.6c-0.1,0.4-0.2,0.8-0.2,1.2V212.8z"/>
	<path class="st2" d="M186.1,211.2c0,6-4.1,8.6-8.1,8.6c-4.4,0-7.7-3.2-7.7-8.3c0-5.4,3.5-8.6,8-8.6
		C182.9,202.9,186.1,206.2,186.1,211.2z M173.2,211.3c0,3.5,2,6.2,4.9,6.2c2.8,0,4.9-2.6,4.9-6.3c0-2.7-1.4-6.2-4.8-6.2
		C174.7,205.1,173.2,208.3,173.2,211.3z"/>
	<path class="st2" d="M191.4,211.8c0.1,4,2.6,5.6,5.5,5.6c2.1,0,3.4-0.4,4.5-0.8l0.5,2.1c-1,0.5-2.8,1-5.4,1c-5,0-7.9-3.3-7.9-8.2
		s2.9-8.7,7.6-8.7c5.3,0,6.7,4.6,6.7,7.6c0,0.6-0.1,1.1-0.1,1.4H191.4z M200,209.7c0-1.9-0.8-4.8-4.1-4.8c-3,0-4.3,2.7-4.5,4.8H200z
		"/>
	<path class="st2" d="M209.4,203.2v7h0.7l6.1-7h3.6l-7,7.3c2.6,0.3,4.2,2,5.4,4.9c0.4,1.1,1,2.6,1.7,3.9h-3.1c-0.4-0.7-1-2-1.5-3.3
		c-1.1-2.6-2.6-3.8-5.3-3.8h-0.6v7.1h-2.9v-16.2H209.4z"/>
	<path class="st2" d="M234,203.2v2.3h-5v13.8H226v-13.8h-5v-2.3H234z"/>
	<path class="st2" d="M245.3,219.4l-0.2-2h-0.1c-0.9,1.3-2.6,2.4-4.9,2.4c-3.3,0-4.9-2.3-4.9-4.6c0-3.9,3.5-6.1,9.7-6v-0.3
		c0-1.3-0.4-3.7-3.7-3.7c-1.5,0-3.1,0.5-4.2,1.2l-0.7-1.9c1.3-0.9,3.3-1.4,5.3-1.4c4.9,0,6.1,3.4,6.1,6.6v6.1c0,1.4,0.1,2.8,0.3,3.9
		H245.3z M244.8,211.1c-3.2-0.1-6.8,0.5-6.8,3.6c0,1.9,1.3,2.8,2.8,2.8c2.1,0,3.4-1.3,3.9-2.7c0.1-0.3,0.2-0.6,0.2-0.9V211.1z"/>
</g>
<path class="st0" d="M147.9,112.7h-45.2c-1.8,0-3.2,1.4-3.2,3.1v7.3c0,1.7,1.5,3.1,3.2,3.1h45.2c1.8,0,3.2-1.4,3.2-3.1v-7.3
	C151.2,114.1,149.7,112.7,147.9,112.7z M147.9,90.8h-45.2c-1.8,0-3.2,1.4-3.2,3.1v7.3c0,1.7,1.5,3.1,3.2,3.1h45.2
	c1.8,0,3.2-1.4,3.2-3.1v-7.3C151.2,92.2,149.7,90.8,147.9,90.8z M147.9,112.7h-45.2c-1.8,0-3.2,1.4-3.2,3.1v7.3
	c0,1.7,1.5,3.1,3.2,3.1h45.2c1.8,0,3.2-1.4,3.2-3.1v-7.3C151.2,114.1,149.7,112.7,147.9,112.7z M147.9,90.8h-45.2
	c-1.8,0-3.2,1.4-3.2,3.1v7.3c0,1.7,1.5,3.1,3.2,3.1h45.2c1.8,0,3.2-1.4,3.2-3.1v-7.3C151.2,92.2,149.7,90.8,147.9,90.8z
	 M147.9,112.7h-45.2c-1.8,0-3.2,1.4-3.2,3.1v7.3c0,1.7,1.5,3.1,3.2,3.1h45.2c1.8,0,3.2-1.4,3.2-3.1v-7.3
	C151.2,114.1,149.7,112.7,147.9,112.7z M147.9,90.8h-45.2c-1.8,0-3.2,1.4-3.2,3.1v7.3c0,1.7,1.5,3.1,3.2,3.1h45.2
	c1.8,0,3.2-1.4,3.2-3.1v-7.3C151.2,92.2,149.7,90.8,147.9,90.8z"/>
</svg>
